<svg width="13" height="13" viewBox="0 0 13 13" fill="none" xmlns="http://www.w3.org/2000/svg">
<g clip-path="url(#clip0)">
<path d="M9.49232 7.82785C9.45563 7.70546 9.30467 7.64823 9.14965 7.64823C8.9987 7.64823 8.84774 7.70546 8.81104 7.82785L8.02364 10.3939C8.01957 10.4103 8.0155 10.4265 8.0155 10.4347C8.0155 10.5653 8.20722 10.6549 8.35004 10.6549C8.4398 10.6549 8.50913 10.6265 8.52956 10.5489L8.68449 10.0063H9.61878L9.7739 10.5489C9.79424 10.6265 9.86356 10.6549 9.95332 10.6549C10.0961 10.6549 10.2879 10.5612 10.2879 10.4347C10.2879 10.4225 10.2838 10.4102 10.2797 10.3939L9.49232 7.82785ZM8.79468 9.59012L9.14955 8.33775L9.50462 9.59012H8.79468Z" fill="#B4AAE7"/>
<path d="M11.5993 5.30327H7.69663V3.63641L8.96497 2.73048C9.06505 2.65897 9.12446 2.54362 9.12446 2.42064C9.12446 2.29755 9.06505 2.18221 8.96497 2.11069L7.68136 1.19386C7.58109 0.519218 6.99799 0 6.29598 0H1.40075C0.628319 0 0 0.628319 0 1.40075V6.29608C0 7.06841 0.628319 7.69673 1.40075 7.69673H5.30337V9.36359L4.03503 10.2695C3.93495 10.341 3.87554 10.4565 3.87554 10.5795C3.87554 10.7024 3.93495 10.8179 4.03503 10.8893L5.31864 11.8061C5.41891 12.4808 6.00201 13 6.70402 13H11.5993C12.3717 13 13 12.3716 13 11.5993V6.70402C13 5.93159 12.3717 5.30327 11.5993 5.30327V5.30327ZM1.40075 6.93501C1.04836 6.93501 0.761719 6.64838 0.761719 6.29598V1.40065C0.761719 1.04836 1.04836 0.761719 1.40075 0.761719H6.29598C6.64828 0.761719 6.93491 1.04836 6.93491 1.40065C6.93491 1.52374 6.99432 1.63918 7.0944 1.71059L8.0883 2.42054L7.0944 3.13049C6.99432 3.202 6.93491 3.31744 6.93491 3.44043V5.30327H6.70402C5.93169 5.30327 5.30337 5.93159 5.30337 6.70392V6.93501H1.40075ZM12.2383 11.5993C12.2383 11.9516 11.9516 12.2383 11.5993 12.2383H6.70402C6.35172 12.2383 6.06509 11.9516 6.06509 11.5993C6.06509 11.4763 6.00568 11.3608 5.9056 11.2894L4.9117 10.5795L5.9056 9.86951C6.00568 9.798 6.06509 9.68256 6.06509 9.55957V6.70402C6.06509 6.35162 6.35172 6.06499 6.70402 6.06499H7.31478H7.31577H7.31676H11.5993C11.9516 6.06499 12.2383 6.35162 12.2383 6.70402V11.5993Z" fill="#B4AAE7"/>
<path d="M5.01851 3.51095C5.13703 3.51095 5.23324 3.41474 5.23324 3.29612C5.23324 3.1775 5.13703 3.08129 5.01851 3.08129H4.06309V2.55979C4.06309 2.44117 3.96688 2.34496 3.84826 2.34496C3.72974 2.34496 3.63353 2.44117 3.63353 2.55979V3.08129H2.67811C2.55959 3.08129 2.46338 3.1775 2.46338 3.29612C2.46338 3.41474 2.55959 3.51095 2.67811 3.51095H2.97417C3.02148 3.96451 3.21706 4.37443 3.51124 4.69191C3.26735 4.83791 2.9825 4.92221 2.67811 4.92221C2.55959 4.92221 2.46338 5.01832 2.46338 5.13694C2.46338 5.25556 2.55959 5.35177 2.67811 5.35177C3.11272 5.35177 3.5159 5.21589 3.84826 4.98479C4.18072 5.21589 4.58389 5.35177 5.01851 5.35177C5.13703 5.35177 5.23324 5.25556 5.23324 5.13694C5.23324 5.01832 5.13703 4.92221 5.01851 4.92221C4.71412 4.92221 4.42927 4.8381 4.18538 4.69191C4.47955 4.37443 4.67514 3.96451 4.72245 3.51095H5.01851ZM3.84826 4.42352C3.6133 4.17963 3.45371 3.86295 3.407 3.51095H4.28962C4.2429 3.86295 4.08332 4.17963 3.84826 4.42352Z" fill="#B4AAE7"/>
</g>
<defs>
<clipPath id="clip0">
<rect width="13" height="13" fill="white"/>
</clipPath>
</defs>
</svg>
