<svg width="14" height="14" viewBox="0 0 14 14" fill="none" xmlns="http://www.w3.org/2000/svg">
<g clip-path="url(#clip0)">
<path d="M7.00135 1.69046C3.48106 0.704944 0 3.36599 0 6.99992C0 10.6408 3.4874 13.2931 7.00135 12.3094C10.5265 13.2971 14 10.6265 14 6.99992C14 3.36925 10.5222 0.703983 7.00135 1.69046ZM0.823529 6.99992C0.823529 4.38876 2.96855 2.26896 5.59045 2.31118C4.02135 3.28405 2.97396 5.02186 2.97396 6.99992C2.97396 8.97799 4.02135 10.7158 5.59045 11.6887C2.9686 11.7309 0.823529 9.61114 0.823529 6.99992ZM8.48699 11.6894C5.90119 11.6894 3.79751 9.5857 3.79751 6.99992C3.79751 4.41415 5.90119 2.31044 8.48699 2.31044C11.0728 2.31044 13.1765 4.41415 13.1765 6.99992C13.1765 9.5857 11.0728 11.6894 8.48699 11.6894Z" fill="#B4AAE7"/>
<path d="M9.07067 6.58815H7.9033C7.55228 6.58815 7.26671 6.3026 7.26671 5.95159C7.26671 5.59939 7.55179 5.315 7.90316 5.315C7.90577 5.31503 7.90837 5.315 7.91104 5.31503H9.02964C9.26514 5.3172 9.49723 5.422 9.66661 5.60271C9.82212 5.76865 10.0827 5.77714 10.2486 5.62157C10.4145 5.46606 10.423 5.2055 10.2675 5.03956C9.87801 4.62398 9.42992 4.4915 8.89878 4.4915V3.99815C8.89878 3.77074 8.71442 3.58638 8.48701 3.58638C8.25961 3.58638 8.07525 3.77074 8.07525 3.99815V4.4915C6.98199 4.4915 6.44321 5.2027 6.44321 5.95159C6.44321 6.7567 7.09821 7.41168 7.90332 7.41168H9.0707C9.42172 7.41168 9.70726 7.69722 9.70726 8.04824C9.70726 8.40043 9.42218 8.68483 9.07081 8.68483C9.0682 8.68483 9.0656 8.6848 9.06293 8.6848H7.84252C7.67295 8.68321 7.50147 8.62559 7.34653 8.51809C7.15968 8.38844 6.90312 8.43486 6.7735 8.62166C6.64387 8.80852 6.69024 9.06505 6.87707 9.1947C7.38052 9.54399 7.81046 9.50833 8.07519 9.50833V10.0017C8.07519 10.2291 8.25955 10.4134 8.48696 10.4134C8.71436 10.4134 8.89872 10.2291 8.89872 10.0017V9.50833C10.005 9.50833 10.5308 8.78357 10.5308 8.04824C10.5308 7.24313 9.87578 6.58815 9.07067 6.58815Z" fill="#B4AAE7"/>
</g>
<defs>
<clipPath id="clip0">
<rect width="14" height="14" fill="white"/>
</clipPath>
</defs>
</svg>
