<svg width="14" height="14" viewBox="0 0 14 14" fill="none" xmlns="http://www.w3.org/2000/svg">
<g clip-path="url(#clip0)">
<path d="M1.42012 10.2667C1.28911 10.2667 1.18277 10.3713 1.18277 10.5V10.9667C1.18277 11.0955 1.28911 11.2001 1.42012 11.2001C1.55113 11.2001 1.65746 11.0955 1.65746 10.9667V10.5C1.65746 10.3713 1.55113 10.2667 1.42012 10.2667Z" fill="#B4AAE7"/>
<path d="M1.42012 11.6667C1.28911 11.6667 1.18277 11.7713 1.18277 11.9V12.3667C1.18277 12.4955 1.28911 12.6 1.42012 12.6C1.55113 12.6 1.65746 12.4955 1.65746 12.3667V11.9C1.65746 11.7713 1.55113 11.6667 1.42012 11.6667Z" fill="#B4AAE7"/>
<path d="M1.42012 8.86672C1.28911 8.86672 1.18277 8.97126 1.18277 9.10005V9.56672C1.18277 9.69551 1.28911 9.80005 1.42012 9.80005C1.55113 9.80005 1.65746 9.69551 1.65746 9.56672V9.10005C1.65746 8.97126 1.55113 8.86672 1.42012 8.86672Z" fill="#B4AAE7"/>
<path d="M2.36952 10.2667C2.23851 10.2667 2.13217 10.3713 2.13217 10.5V10.9667C2.13217 11.0955 2.23851 11.2001 2.36952 11.2001C2.50053 11.2001 2.60686 11.0955 2.60686 10.9667V10.5C2.60689 10.3713 2.50056 10.2667 2.36952 10.2667Z" fill="#B4AAE7"/>
<path d="M2.36952 8.86672C2.23851 8.86672 2.13217 8.97126 2.13217 9.10005V9.56672C2.13217 9.69551 2.23851 9.80005 2.36952 9.80005C2.50053 9.80005 2.60686 9.69551 2.60686 9.56672V9.10005C2.60689 8.97126 2.50056 8.86672 2.36952 8.86672Z" fill="#B4AAE7"/>
<path d="M2.36952 11.6667C2.23851 11.6667 2.13217 11.7713 2.13217 11.9V12.3667C2.13217 12.4955 2.23851 12.6 2.36952 12.6C2.50053 12.6 2.60686 12.4955 2.60686 12.3667V11.9C2.60689 11.7713 2.50056 11.6667 2.36952 11.6667Z" fill="#B4AAE7"/>
<path d="M13.7626 2.56668H13.2879V1.86668C13.2879 1.73789 13.1815 1.63335 13.0505 1.63335H11.6264C11.4954 1.63335 11.389 1.73789 11.389 1.86668V2.56668H10.9143C10.7833 2.56668 10.677 2.67122 10.677 2.80001V6.53334H10.4396V5.83334C10.4396 5.70455 10.3333 5.60001 10.2023 5.60001H9.96491V5.36669C9.96491 5.2379 9.85857 5.13336 9.72756 5.13336C9.59655 5.13336 9.49021 5.2379 9.49021 5.36669V5.60001H9.25284C9.12183 5.60001 9.01549 5.70455 9.01549 5.83334V6.53334H8.30342V1.86668C8.30342 1.73789 8.19709 1.63335 8.06608 1.63335H7.35401V0.233352C7.35398 0.104535 7.24765 0 7.11664 0H4.26837C4.13736 0 4.03102 0.104535 4.03102 0.233325V1.63333H3.31896C3.18795 1.63333 3.08161 1.73786 3.08161 1.86665V7.93334H2.60689V7.23334C2.60689 7.10455 2.50055 7.00001 2.36954 7.00001H0.945407C0.814398 7.00001 0.708061 7.10455 0.708061 7.23334V7.93334H0.470714C0.339705 7.93334 0.233368 8.03787 0.233368 8.16666V13.7667C0.233368 13.8955 0.339705 14 0.470714 14H3.31898H5.21784H10.9144H13.7626C13.8937 14 14 13.8955 14 13.7667V2.80001C14 2.67122 13.8936 2.56668 13.7626 2.56668ZM6.87929 2.80001C6.87929 2.67122 6.98563 2.56668 7.11664 2.56668C7.24765 2.56668 7.35398 2.67122 7.35398 2.80001V6.53334H6.87926V2.80001H6.87929ZM5.92985 1.16668C5.92985 1.03789 6.03619 0.933353 6.1672 0.933353C6.2982 0.933353 6.40454 1.03789 6.40454 1.16668V1.86668C6.40454 1.99547 6.2982 2.1 6.1672 2.1C6.03619 2.1 5.92985 1.99547 5.92985 1.86668V1.16668ZM5.92985 2.80001C5.92985 2.67122 6.03619 2.56668 6.1672 2.56668C6.2982 2.56668 6.40454 2.67122 6.40454 2.80001V6.53334H5.92982V2.80001H5.92985ZM4.98044 1.16668C4.98044 1.03789 5.08677 0.933353 5.21778 0.933353C5.34879 0.933353 5.45513 1.03789 5.45513 1.16668V1.86668C5.45513 1.99547 5.34879 2.1 5.21778 2.1C5.08677 2.1 4.98044 1.99547 4.98044 1.86668V1.16668ZM4.03102 2.80001C4.03102 2.67122 4.13736 2.56668 4.26837 2.56668C4.39938 2.56668 4.50571 2.67122 4.50571 2.80001V7.93334H4.03099V2.80001H4.03102ZM4.98044 13.0667H4.26837C4.13736 13.0667 4.03102 12.9622 4.03102 12.8334C4.03102 12.7046 4.13736 12.6001 4.26837 12.6001H4.98044V13.0667ZM4.98044 12.1333H4.26837C4.13736 12.1333 4.03102 12.0288 4.03102 11.9C4.03102 11.7712 4.13736 11.6667 4.26837 11.6667H4.98044V12.1333ZM4.98044 11.2H4.26837C4.13736 11.2 4.03102 11.0955 4.03102 10.9667C4.03102 10.8379 4.13736 10.7334 4.26837 10.7334H4.98044V11.2ZM4.98044 10.2667H4.26837C4.13736 10.2667 4.03102 10.1622 4.03102 10.0334C4.03102 9.90458 4.13736 9.80005 4.26837 9.80005H4.98044V10.2667ZM4.98044 8.86669H3.31896C3.18795 8.86669 3.08161 8.97123 3.08161 9.10002V13.5334H0.708033V8.40002H0.945379H2.36951H3.31893H4.26837H4.98044V8.86669ZM4.98044 6.76669V2.80001C4.98044 2.67122 5.08677 2.56668 5.21778 2.56668C5.34879 2.56668 5.45513 2.67122 5.45513 2.80001V6.53334H5.21778C5.08677 6.53334 4.98044 6.63787 4.98044 6.76669ZM10.677 13.5334H10.2023V7.70002C10.2023 7.57123 10.0959 7.46669 9.96491 7.46669C9.8339 7.46669 9.72756 7.57123 9.72756 7.70002V13.5334H9.25284V7.70002C9.25284 7.57123 9.1465 7.46669 9.01549 7.46669C8.88448 7.46669 8.77815 7.57123 8.77815 7.70002V13.5334H8.30342V7.70002C8.30342 7.57123 8.19709 7.46669 8.06608 7.46669C7.93507 7.46669 7.82873 7.57123 7.82873 7.70002V13.5334H7.35401V7.70002C7.35401 7.57123 7.24767 7.46669 7.11667 7.46669C6.98566 7.46669 6.87932 7.57123 6.87932 7.70002V13.5334H6.40457V7.70002C6.40457 7.57123 6.29823 7.46669 6.16722 7.46669C6.03621 7.46669 5.92988 7.57123 5.92988 7.70002V13.5334H5.45516V12.8333V11.9V10.9667V10.0334V9.10002V8.16669V7.00001H6.16722H7.11664H8.06605H9.25284H10.2023H10.677V13.5334ZM12.1011 12.6455C12.1011 12.7743 11.9948 12.8788 11.8638 12.8788C11.7328 12.8788 11.6264 12.7743 11.6264 12.6455V12.1788C11.6264 12.0501 11.7328 11.9455 11.8638 11.9455C11.9948 11.9455 12.1011 12.0501 12.1011 12.1788V12.6455ZM12.1011 11.2455C12.1011 11.3743 11.9948 11.4788 11.8638 11.4788C11.7328 11.4788 11.6264 11.3743 11.6264 11.2455V10.7788C11.6264 10.6501 11.7328 10.5455 11.8638 10.5455C11.9948 10.5455 12.1011 10.6501 12.1011 10.7788V11.2455ZM12.1011 9.84552C12.1011 9.97431 11.9948 10.0788 11.8638 10.0788C11.7328 10.0788 11.6264 9.97431 11.6264 9.84552V9.37884C11.6264 9.25005 11.7328 9.14552 11.8638 9.14552C11.9948 9.14552 12.1011 9.25005 12.1011 9.37884V9.84552ZM12.1011 8.44552C12.1011 8.57431 11.9948 8.67884 11.8638 8.67884C11.7328 8.67884 11.6264 8.57431 11.6264 8.44552V7.97884C11.6264 7.85005 11.7328 7.74552 11.8638 7.74552C11.9948 7.74552 12.1011 7.85005 12.1011 7.97884V8.44552ZM12.1011 7.04551C12.1011 7.1743 11.9948 7.27884 11.8638 7.27884C11.7328 7.27884 11.6264 7.1743 11.6264 7.04551V6.57884C11.6264 6.45005 11.7328 6.34551 11.8638 6.34551C11.9948 6.34551 12.1011 6.45005 12.1011 6.57884V7.04551ZM12.1011 5.64551C12.1011 5.7743 11.9948 5.87884 11.8638 5.87884C11.7328 5.87884 11.6264 5.7743 11.6264 5.64551V5.17883C11.6264 5.05005 11.7328 4.94551 11.8638 4.94551C11.9948 4.94551 12.1011 5.05005 12.1011 5.17883V5.64551ZM12.1011 4.24551C12.1011 4.3743 11.9948 4.47883 11.8638 4.47883C11.7328 4.47883 11.6264 4.3743 11.6264 4.24551V3.77883C11.6264 3.65004 11.7328 3.54551 11.8638 3.54551C11.9948 3.54551 12.1011 3.65004 12.1011 3.77883V4.24551ZM13.0505 12.6455C13.0505 12.7743 12.9442 12.8788 12.8132 12.8788C12.6822 12.8788 12.5758 12.7743 12.5758 12.6455V12.1788C12.5758 12.0501 12.6822 11.9455 12.8132 11.9455C12.9442 11.9455 13.0505 12.0501 13.0505 12.1788V12.6455ZM13.0505 11.2455C13.0505 11.3743 12.9442 11.4788 12.8132 11.4788C12.6822 11.4788 12.5758 11.3743 12.5758 11.2455V10.7788C12.5758 10.6501 12.6822 10.5455 12.8132 10.5455C12.9442 10.5455 13.0505 10.6501 13.0505 10.7788V11.2455ZM13.0505 9.84552C13.0505 9.97431 12.9442 10.0788 12.8132 10.0788C12.6822 10.0788 12.5758 9.97431 12.5758 9.84552V9.37884C12.5758 9.25005 12.6822 9.14552 12.8132 9.14552C12.9442 9.14552 13.0505 9.25005 13.0505 9.37884V9.84552ZM13.0505 8.44552C13.0505 8.57431 12.9442 8.67884 12.8132 8.67884C12.6822 8.67884 12.5758 8.57431 12.5758 8.44552V7.97884C12.5758 7.85005 12.6822 7.74552 12.8132 7.74552C12.9442 7.74552 13.0505 7.85005 13.0505 7.97884V8.44552ZM13.0505 7.04551C13.0505 7.1743 12.9442 7.27884 12.8132 7.27884C12.6822 7.27884 12.5758 7.1743 12.5758 7.04551V6.57884C12.5758 6.45005 12.6822 6.34551 12.8132 6.34551C12.9442 6.34551 13.0505 6.45005 13.0505 6.57884V7.04551ZM13.0505 5.64551C13.0505 5.7743 12.9442 5.87884 12.8132 5.87884C12.6822 5.87884 12.5758 5.7743 12.5758 5.64551V5.17883C12.5758 5.05005 12.6822 4.94551 12.8132 4.94551C12.9442 4.94551 13.0505 5.05005 13.0505 5.17883V5.64551ZM13.0505 4.24551C13.0505 4.3743 12.9442 4.47883 12.8132 4.47883C12.6822 4.47883 12.5758 4.3743 12.5758 4.24551V3.77883C12.5758 3.65004 12.6822 3.54551 12.8132 3.54551C12.9442 3.54551 13.0505 3.65004 13.0505 3.77883V4.24551Z" fill="#B4AAE7"/>
</g>
<defs>
<clipPath id="clip0">
<rect width="14" height="14" fill="white"/>
</clipPath>
</defs>
</svg>
