<svg width="19" height="19" viewBox="0 0 19 19" fill="none" xmlns="http://www.w3.org/2000/svg">
<path d="M6.46563 11.0556C6.44521 11.0418 6.10419 10.735 6.01953 10.6263C5.93668 10.5165 5.77698 10.4876 5.69352 10.4438C5.60947 10.4006 5.0547 10.2175 4.92142 10.3123C4.78993 10.4072 4.60861 10.4648 4.53837 10.3123C4.46932 10.1586 4.4345 10.137 4.33724 10.1154C4.23997 10.0938 4.2886 9.97791 4.282 9.87585C4.2742 9.77318 4.21896 9.66391 4.14931 9.73716C4.07967 9.8104 3.84311 10.0001 3.80889 9.90406C3.77407 9.8098 3.60656 9.41655 3.85752 9.3427C4.10729 9.27065 4.31622 9.31328 4.37926 9.37932C4.4417 9.44416 4.48974 9.62728 4.56719 9.60507C4.64404 9.58285 4.60201 9.44356 4.62963 9.32829C4.65725 9.21241 4.83916 9.05871 4.92142 8.89901C5.00487 8.7375 5.01868 8.64324 5.12255 8.59941C5.22822 8.55618 5.28345 8.49795 5.38072 8.4247C5.47858 8.35145 5.63048 8.28661 5.68752 8.24938C5.74335 8.21216 5.99312 8.08848 6.07597 8.11069C6.15943 8.13291 6.21466 8.10349 6.14562 7.97981C6.07597 7.85613 5.98591 7.48389 5.85383 7.31698C5.72174 7.15007 5.70733 7.10504 5.64489 6.94593C5.58245 6.78443 5.5122 6.64634 5.46357 6.75561C5.41494 6.86488 5.31107 7.01078 5.25524 6.87209C5.2 6.7334 5.2066 6.74 5.13696 6.67516C5.06791 6.60971 5.01148 6.59471 4.91481 6.56529C4.81755 6.53587 4.72029 6.57309 4.72689 6.66735C4.73349 6.76221 4.63563 6.93092 4.69927 7.05521C4.76171 7.17949 4.81755 7.31037 4.73349 7.3542C4.65064 7.39743 4.73349 7.6604 4.65064 7.6526C4.56719 7.64599 4.52576 7.6604 4.52576 7.56494C4.52576 7.47128 4.56719 7.32538 4.41349 7.32538C4.26099 7.32538 4.17033 7.24553 4.05925 7.16448C3.94758 7.08462 3.85752 7.12785 3.88514 6.94653C3.91276 6.76341 3.87193 6.69857 3.99621 6.59651C4.1217 6.49504 4.14991 6.4356 4.23997 6.48003C4.33063 6.52386 4.39247 6.52386 4.44951 6.47283C4.50475 6.42179 4.60861 6.44281 4.60861 6.37796C4.60861 6.31252 4.49034 6.31252 4.50475 6.20385C4.51795 6.09278 4.57439 6.15222 4.5948 5.9697C4.61522 5.78718 4.46272 5.5104 4.30962 5.54702C4.15592 5.58304 3.92056 5.79498 3.87193 5.69952C3.8227 5.60526 3.72544 5.64849 3.53751 5.71453C3.34959 5.78057 2.57088 5.64969 2.51565 5.58304C2.51565 5.58304 2.38296 5.48878 2.31332 5.53982C2.24427 5.59085 1.96569 5.56864 1.88223 5.55483C1.79818 5.53982 1.72193 5.64909 1.61866 5.61306C1.51299 5.57644 1.14495 5.50319 1.0621 5.44495C0.977444 5.38612 0.851962 5.38612 0.797927 5.3573C0.74209 5.32788 0.539758 5.31347 0.498931 5.37171C0.456904 5.42994 0.303804 5.53141 0.226954 5.60466C0.150704 5.67791 0.0612458 5.6635 0.136895 5.8166C0.213145 5.9697 -0.0576318 6.06456 0.0114132 6.23147C0.0804583 6.39838 -0.00239576 6.85047 0.275586 6.93813C0.554167 7.02579 0.783517 7.07682 0.943221 6.94653C1.10413 6.81445 1.34728 6.81445 1.42353 6.96034C1.49978 7.10624 1.54181 7.32478 1.79157 7.44846C2.04134 7.57274 2.25748 7.92998 2.24367 8.08908C2.23046 8.24998 2.25148 8.78133 2.50724 9.08753C2.76541 9.39373 3.02958 9.94849 3.0494 9.81641C3.07041 9.68492 3.07041 9.55343 3.12685 9.6489C3.18148 9.74376 3.32798 10.0355 3.56453 10.0866C3.80169 10.1376 3.91996 10.152 4.00942 10.2403C4.09948 10.3279 4.17693 10.3784 4.27359 10.4228C4.37086 10.466 4.60741 10.5981 4.65604 10.6852C4.70528 10.7728 4.68426 10.8893 4.63503 11.0208C4.587 11.1523 4.53116 11.2832 4.60021 11.4074C4.67045 11.5311 4.81635 11.8884 4.93523 11.9682C5.0535 12.0493 5.17058 12.1801 5.14296 12.3621C5.11534 12.544 4.98326 13.3239 4.99707 13.4992C5.01148 13.6733 4.83796 14.2491 4.97665 14.4827C5.11534 14.7156 5.3531 14.7889 5.45697 14.7588C5.56083 14.7306 5.47798 14.7222 5.42875 14.6135C5.38012 14.5037 5.38672 14.365 5.44256 14.2635C5.49899 14.1614 5.49899 14.1032 5.47078 13.9867C5.44256 13.8703 5.45697 13.8042 5.52601 13.7172C5.59626 13.6295 5.88805 13.3965 5.97871 13.2945C6.06817 13.1924 6.63974 12.4924 6.71599 12.4341C6.79224 12.3759 6.96575 12.2372 7.02219 12.0192C7.07802 11.8013 7.27916 11.3708 7.14047 11.2609C7.00117 11.1511 6.48664 11.07 6.46563 11.0556Z" fill="#B4AAE7"/>
<path d="M7.85614 4.9052C7.89577 4.82775 7.99183 4.63382 8.04347 4.52755H5.84003C5.86644 4.64463 5.96191 5.07931 5.94389 5.25523C5.92288 5.45936 5.98592 5.38671 6.04116 5.46717C6.09699 5.54762 6.08319 5.6719 6.04836 5.76556C6.01294 5.86042 5.99253 6.07236 6.1048 6.32032C6.21527 6.56769 6.34736 6.88109 6.45843 6.8961C6.5707 6.90991 6.54248 7.07081 6.61934 7.01197C6.69558 6.95314 6.70879 6.82345 6.77244 6.63313C6.83488 6.4446 6.83488 6.30531 6.99518 6.21045C7.15549 6.11559 7.59978 5.80999 7.69704 5.70012C7.7949 5.59025 7.90597 5.54702 7.87115 5.3579C7.83513 5.16817 7.80091 5.01507 7.85614 4.9052Z" fill="#B4AAE7"/>
<path d="M18.7046 5.76556C18.6212 5.70732 18.121 5.30686 17.9049 5.3579C17.6906 5.40893 17.3075 5.24082 17.2445 5.2048C17.182 5.16817 16.6681 5.01027 16.3967 5.00066C16.2616 4.99586 15.6942 4.86918 15.4577 4.76771C15.2205 4.66504 15.02 4.16252 14.5679 4.24297C14.5097 4.25378 13.9633 4.33063 13.824 4.45491C13.6859 4.57919 13.6223 4.72388 13.546 4.7533C13.4698 4.78272 13.2471 4.76771 13.2471 4.87758C13.2471 4.98685 13.3239 5.32247 13.2338 5.25643C13.1432 5.19099 13.0525 5.03789 13.0117 5.15496C12.9703 5.27204 12.8988 5.33688 12.858 5.29305C12.8172 5.24923 12.607 5.29305 12.58 5.3657C12.5518 5.43895 12.281 5.60586 12.1633 5.62867C12.0451 5.65029 11.9958 5.70853 11.9334 5.73795C11.871 5.76676 11.3972 5.98591 11.3078 5.90545C11.2171 5.8256 11.1895 5.87664 11.1337 5.89105C11.1337 5.89105 10.9668 5.86163 10.8629 5.73074C10.7578 5.59985 10.7374 5.64308 10.6191 5.5194C10.5015 5.39572 10.4732 5.27204 10.3556 5.32307C10.2379 5.37351 9.73716 5.89044 9.54203 6.124C9.34811 6.35755 8.99988 6.59771 9.17339 6.76461C9.34811 6.93212 9.43757 6.91051 9.45918 7.00477C9.48079 7.09903 9.50121 7.2017 9.52882 7.23832C9.55644 7.27555 9.72275 7.40583 9.80681 7.23112C9.89146 7.0558 9.90407 6.93212 10.0013 6.96154C10.0986 6.99036 10.119 7.05641 10.0698 7.18729C10.0211 7.31938 9.98692 7.52291 9.82002 7.5151C9.65371 7.5079 9.47299 7.40583 9.41655 7.42805C9.36132 7.44966 9.32769 7.5007 9.26405 7.55173C9.20161 7.60276 9.00648 7.84232 8.8744 7.87954C8.74291 7.91617 8.58321 7.88615 8.67327 7.99542C8.76333 8.10469 8.89541 8.34545 8.77053 8.33764C8.64565 8.33044 8.43671 8.30882 8.4229 8.4325C8.40909 8.55618 8.35386 8.62943 8.38148 8.71649C8.40909 8.80415 8.49975 8.97226 8.61022 8.91342C8.7231 8.85458 8.93804 8.79754 8.99328 8.66546C9.04911 8.53397 9.11215 8.38928 9.25084 8.39648C9.38953 8.40368 9.72395 8.5856 9.70234 8.65165C9.68192 8.71649 9.61288 8.87019 9.69573 8.81916C9.77919 8.76752 9.84823 8.70928 9.89686 8.68767C9.9455 8.66546 10.0097 8.76092 10.0296 8.79754C10.05 8.83477 10.1899 8.90681 10.2169 8.78914C10.2451 8.67326 10.2727 8.76092 10.3556 8.79754C10.4396 8.83477 10.6894 8.86238 10.723 8.8918C10.759 8.92122 10.8353 9.00828 10.7374 9.12536C10.6402 9.24123 10.5285 9.28626 10.3688 9.1986C10.2085 9.11095 10.0344 9.27185 9.85544 9.18359C9.67352 9.09654 9.75757 8.97286 9.54203 8.8852C9.32769 8.79754 8.84018 8.90681 8.68648 8.95064C8.53338 8.99387 8.52677 9.00888 8.46433 9.08153C8.40189 9.15478 7.99182 9.62788 7.99182 9.89746C7.99182 10.1664 8.14432 10.8965 8.63784 10.8233C9.13197 10.75 9.43096 10.7932 9.37572 10.9385C9.31929 11.085 9.34811 11.1217 9.43817 11.2886C9.52822 11.4561 9.73776 12.5716 9.77198 12.7529C9.80801 12.9354 9.74497 13.1678 9.97432 13.1318C10.2049 13.0951 10.4474 13.0375 10.5441 12.8262C10.642 12.6142 10.657 12.3747 10.7818 12.251C10.9073 12.1267 11.0598 12.1267 11.073 11.952C11.0862 11.7767 11.0382 11.3618 11.1217 11.2658C11.2057 11.1721 11.5942 10.7338 11.6356 10.5591C11.6776 10.3844 11.7329 10.3405 11.5732 10.3405C11.4135 10.3405 11.1421 10.3195 11.0646 10.1736C10.9884 10.0295 10.8071 9.75277 10.8071 9.68732C10.8071 9.62248 10.9187 9.62908 10.9734 9.76717C11.0298 9.90526 11.2231 10.3219 11.4459 10.2331C11.6686 10.1454 11.982 10.044 11.9886 9.90526C11.9952 9.76717 11.8914 9.60687 11.7797 9.61468C11.6674 9.62248 11.5497 9.54143 11.5497 9.46158C11.5497 9.38172 11.5702 9.41114 11.7028 9.46158C11.8355 9.51261 11.8764 9.59967 12.0787 9.61468C12.2804 9.62908 12.5098 9.82601 12.6202 9.91367C12.7319 10.0013 12.9258 10.5993 12.9751 10.657C13.0231 10.7158 13.0807 10.7158 13.1288 10.5987C13.1774 10.4816 13.3857 10.1106 13.5046 10.0079C13.6223 9.90587 13.6295 9.76778 13.6979 9.85543C13.7676 9.94309 14.0666 10.161 14.0876 10.2925C14.1086 10.424 14.0738 10.708 14.1362 10.6203C14.1987 10.5327 14.2479 10.3514 14.3019 10.4318C14.3584 10.5123 14.3584 10.6359 14.4899 10.5411C14.6226 10.4474 14.8519 10.4102 14.727 10.2061C14.6021 10.0019 14.6856 9.87825 14.763 9.87044C14.8393 9.86264 15.361 9.76838 15.3748 9.48379C15.3886 9.1998 15.1935 9.0467 15.286 8.90081C15.3748 8.75491 15.5075 8.62403 15.5357 8.71109C15.5634 8.79874 15.4661 9.08273 15.591 9.0389C15.7165 8.99567 15.8624 8.99567 15.8624 8.90741C15.8624 8.81916 15.8341 8.60061 15.8906 8.54298C15.9464 8.48474 16.3559 8.09929 16.4045 7.94619C16.4531 7.79249 16.5438 7.6616 16.467 7.54572C16.3901 7.42925 16.2586 7.46467 16.3625 7.31998C16.467 7.17408 16.6411 7.03899 16.7732 7.02819C17.1952 6.99096 17.0764 7.5133 17.0836 7.62978C17.0914 7.74626 17.0914 8.03805 17.1532 7.89215C17.2156 7.74686 17.2883 7.56734 17.4138 7.44366C17.5393 7.32058 17.6083 7.23952 17.6161 7.13085C17.6233 7.02158 17.6287 6.98496 17.7482 6.92672C17.8665 6.86788 18.3876 6.66375 18.4362 6.52626C18.4849 6.38817 18.3738 6.26329 18.4987 6.27169C18.6236 6.2783 18.7418 6.41639 18.8049 6.34374C18.8673 6.27169 19.0066 6.14021 18.9994 6.06696C18.991 5.99131 18.7893 5.8238 18.7046 5.76556Z" fill="#B4AAE7"/>
<path d="M16.4597 8.21336C16.4177 8.30882 16.3973 8.32383 16.3349 8.52076C16.2712 8.71649 16.2922 8.66545 16.2292 8.78913C16.1667 8.91342 16.0635 8.92722 15.959 9.00828C15.8533 9.08873 15.8257 9.24843 15.8257 9.24843C15.7357 9.37212 16.1944 9.07312 16.3541 8.97886C16.5144 8.884 16.4729 8.77473 16.4868 8.62163C16.5006 8.46793 16.5438 8.44631 16.6116 8.38087C16.6807 8.31543 16.6254 8.18394 16.5924 8.08968C16.5564 7.99542 16.5006 8.1197 16.4597 8.21336Z" fill="#B4AAE7"/>
<path d="M15.0338 11.5227C15.0824 11.4855 15.047 11.4062 15.1233 11.4201C15.2001 11.4345 15.2692 11.4795 15.361 11.4285C15.4505 11.3768 15.5273 11.3984 15.5135 11.3114C15.5003 11.2243 15.5135 11.1078 15.4931 11.0352C15.4721 10.962 15.3472 10.9397 15.2566 11.0208C15.1659 11.1018 15.0416 11.2255 15.0416 11.1811C15.0416 11.1379 15.0963 11.0208 15.0686 10.9481C15.0416 10.8755 15.0824 10.8101 14.9438 10.8677C14.8045 10.9265 14.7282 10.9115 14.6796 10.992C14.6316 11.073 14.5751 11.2105 14.4923 11.1235C14.4094 11.0364 14.1651 10.8545 14.1651 10.8545C14.1452 10.8323 13.8673 10.6059 13.9645 10.7596C14.0612 10.9127 14.2077 11.1751 14.2773 11.2694C14.3458 11.3642 14.4226 11.4741 14.5067 11.4231C14.5901 11.3714 14.6039 11.3576 14.7156 11.4231C14.8243 11.4861 14.9852 11.5593 15.0338 11.5227Z" fill="#B4AAE7"/>
<path d="M16.7377 11.318C16.6044 11.2597 16.6603 11.2087 16.5 11.1805C16.3397 11.1523 16.2088 11.1805 16.1656 11.1517C16.1235 11.1223 15.9158 11.0496 15.9434 11.1517C15.9716 11.2543 16.1589 11.2826 16.2076 11.3114C16.2562 11.3408 16.1379 11.4068 16.2274 11.4573C16.3174 11.5077 16.3811 11.6032 16.4988 11.5738C16.617 11.5437 16.6591 11.6104 16.7551 11.6248C16.853 11.6386 16.9503 11.6104 16.91 11.5653C16.868 11.5227 16.841 11.4633 16.8476 11.4128C16.8548 11.3618 16.8692 11.3768 16.7377 11.318Z" fill="#B4AAE7"/>
<path d="M16.6681 11.967C16.6195 11.8211 16.5012 11.5527 16.4742 11.683C16.446 11.8139 16.2586 11.9082 16.1878 11.901C16.1241 11.8938 16.1602 11.8283 16.1602 11.7689C16.1602 11.7106 16.1235 11.653 15.965 11.6968C15.8041 11.7401 15.7711 11.8932 15.7279 11.8794C15.6871 11.8649 15.5748 11.8355 15.5063 11.916C15.4367 11.9964 15.3731 12.1495 15.2908 12.1789C15.2067 12.2084 14.9282 12.2438 14.9282 12.3615C14.9282 12.4779 14.9984 12.6527 14.9912 12.7475C14.984 12.8424 14.8573 13.0603 15.026 13.127C15.1233 13.1648 15.1923 13.1702 15.3052 13.1126C15.4163 13.0543 15.8954 12.9012 15.959 12.9517C16.0215 13.0027 16.1223 13.1222 16.1674 13.148C16.2556 13.2008 16.2796 13.3227 16.3979 13.3521C16.5144 13.3815 16.6063 13.3953 16.6543 13.3953C16.7035 13.3953 16.8764 13.3371 16.9185 13.235C16.9605 13.1324 17.0367 12.8922 17.0716 12.7757C17.1082 12.6593 17.1406 12.5284 17.0367 12.4257C16.9329 12.3242 16.7167 12.1129 16.6681 11.967Z" fill="#B4AAE7"/>
</svg>
