<svg width="28" height="27" viewBox="0 0 28 27" fill="none" xmlns="http://www.w3.org/2000/svg">
<path d="M13.9983 0C6.2685 0 0 6.06825 0 13.554C0 19.5413 4.011 24.6206 9.576 26.4144C10.276 26.5393 10.5315 26.1208 10.5315 25.7614C10.5315 25.4391 10.5192 24.5869 10.5122 23.4563C6.6185 24.2747 5.796 21.6388 5.796 21.6388C5.16075 20.0728 4.242 19.656 4.242 19.656C2.96975 18.8156 4.3365 18.8325 4.3365 18.8325C5.74175 18.9287 6.48025 20.2298 6.48025 20.2298C7.72975 22.3003 9.758 21.7029 10.556 21.3553C10.682 20.4795 11.0442 19.8821 11.445 19.5429C8.337 19.2004 5.068 18.0377 5.068 12.8453C5.068 11.3653 5.614 10.1554 6.51 9.207C6.36475 8.86444 5.88525 7.48575 6.6465 5.62106C6.6465 5.62106 7.8225 5.25656 10.4965 7.00988C11.613 6.7095 12.81 6.55931 14.0018 6.55425C15.19 6.561 16.3888 6.7095 17.507 7.01156C20.1792 5.25825 21.3535 5.62275 21.3535 5.62275C22.1165 7.48913 21.637 8.86613 21.4935 9.20869C22.3913 10.1571 22.932 11.367 22.932 12.8469C22.932 18.0529 19.6595 19.1987 16.541 19.5345C17.0433 19.953 17.4912 20.7799 17.4912 22.0438C17.4912 23.8562 17.4737 25.3176 17.4737 25.7614C17.4737 26.1242 17.7257 26.5461 18.4362 26.4128C23.9925 24.6173 28 19.5396 28 13.554C28 6.06825 21.7315 0 13.9983 0Z" fill="url(#paint0_linear)"/>
<defs>
<linearGradient id="paint0_linear" x1="0" y1="14.719" x2="27.5" y2="14.719" gradientUnits="userSpaceOnUse">
<stop stop-color="#EF887E"/>
<stop offset="1" stop-color="#B2AEEF"/>
</linearGradient>
</defs>
</svg>
