<svg width="16" height="16" viewBox="0 0 16 16" fill="none" xmlns="http://www.w3.org/2000/svg">
<g clip-path="url(#clip0)">
<path d="M9.496 13.75H9.004C8.93769 13.75 8.87411 13.7763 8.82722 13.8232C8.78034 13.8701 8.754 13.9337 8.754 14C8.754 14.0663 8.78034 14.1299 8.82722 14.1768C8.87411 14.2237 8.93769 14.25 9.004 14.25H9.49625C9.56255 14.25 9.62614 14.2237 9.67302 14.1768C9.71991 14.1299 9.74625 14.0663 9.74625 14C9.74625 13.9337 9.71991 13.8701 9.67302 13.8232C9.62614 13.7763 9.56255 13.75 9.49625 13.75H9.496Z" fill="#B4AAE7"/>
<path d="M12.75 11.75H12.25C12.1837 11.75 12.1201 11.7763 12.0732 11.8232C12.0263 11.8701 12 11.9337 12 12C12 12.0663 12.0263 12.1299 12.0732 12.1768C12.1201 12.2237 12.1837 12.25 12.25 12.25H12.75C12.8163 12.25 12.8799 12.2237 12.9268 12.1768C12.9737 12.1299 13 12.0663 13 12C13 11.9337 12.9737 11.8701 12.9268 11.8232C12.8799 11.7763 12.8163 11.75 12.75 11.75Z" fill="#B4AAE7"/>
<path d="M15.9827 4.1585C15.97 4.12589 15.9505 4.09634 15.9255 4.07175C15.9006 4.04716 15.8708 4.02808 15.838 4.01575L13.9298 3.3L13.2238 1.88825C13.203 1.84669 13.171 1.81174 13.1315 1.78732C13.092 1.7629 13.0465 1.74998 13 1.75H11.75C11.7076 1.75 11.6659 1.76078 11.6288 1.78134C11.5917 1.80189 11.5605 1.83154 11.538 1.8675L10.288 3.8675C10.2548 3.92061 10.2428 3.98425 10.2542 4.04583C10.2657 4.1074 10.2999 4.16242 10.35 4.2L11.004 4.6905L7.96225 5.99425L5.8935 5.7645L5.45825 5.1115C5.43542 5.07719 5.40446 5.04906 5.36812 5.0296C5.33179 5.01015 5.29121 4.99998 5.25 5H4.75V4C4.75001 3.94751 4.7335 3.89635 4.70281 3.85376C4.67212 3.81118 4.6288 3.77934 4.579 3.76275L3.079 3.26275C3.05352 3.25429 3.02685 3.24998 3 3.25H2.25C2.19566 3.24997 2.14279 3.26764 2.0994 3.30035C2.056 3.33305 2.02444 3.37901 2.0095 3.43125L1.5095 5.18125C1.50317 5.20362 1.49998 5.22675 1.5 5.25V6.06975L0.171 6.51275C0.121199 6.52934 0.0778816 6.56118 0.0471895 6.60376C0.0164974 6.64635 -1.25694e-05 6.69751 7.05405e-08 6.75V7.75C-4.38141e-05 7.80844 0.0203897 7.86506 0.0577501 7.91L1.25 9.3405V10C1.24999 10.0484 1.26402 10.0957 1.29038 10.1363C1.31674 10.1768 1.3543 10.2089 1.3985 10.2285L3.6485 11.2285C3.68046 11.2427 3.71504 11.25 3.75 11.25H5C5.03878 11.25 5.07704 11.241 5.11175 11.2238L5.925 10.817L6.41975 11.4768L6.073 11.8235C6.03055 11.8661 6.00486 11.9225 6.00064 11.9825C5.99642 12.0424 6.01394 12.1019 6.05 12.15L6.8 13.15C6.83514 13.1968 6.88559 13.2298 6.94256 13.2432C6.99953 13.2567 7.0594 13.2497 7.11175 13.2235L8.48175 12.5382L9.11125 12.9578C9.15231 12.9852 9.20059 12.9999 9.25 13H10C10.035 13 10.0697 12.9926 10.1017 12.9784C10.1337 12.9641 10.1623 12.9433 10.1858 12.9172L12.4358 10.4172C12.4771 10.3714 12.5 10.3118 12.5 10.25V8.75C12.5 8.70354 12.4871 8.658 12.4627 8.61847C12.4383 8.57895 12.4033 8.54702 12.3617 8.52625L11.9368 8.3135L11.5542 7.55L12.25 6.8535L12.5732 7.17675C12.6052 7.20866 12.6451 7.23134 12.6888 7.24239C12.7326 7.25344 12.7785 7.25244 12.8217 7.2395L15.3217 6.4895C15.3733 6.47406 15.4184 6.44242 15.4506 6.39928C15.4827 6.35613 15.5 6.30378 15.5 6.25V5.309L15.9738 4.36175C15.9894 4.3304 15.9983 4.2961 15.9999 4.26108C16.0014 4.22607 15.9956 4.19112 15.9827 4.1585V4.1585ZM8.96875 10H8.75C8.6837 10 8.62011 9.97366 8.57322 9.92678C8.52634 9.87989 8.5 9.8163 8.5 9.75C8.5 9.6837 8.52634 9.62011 8.57322 9.57322C8.62011 9.52634 8.6837 9.5 8.75 9.5H8.96875C9.03505 9.5 9.09864 9.52634 9.14553 9.57322C9.19241 9.62011 9.21875 9.6837 9.21875 9.75C9.21875 9.8163 9.19241 9.87989 9.14553 9.92678C9.09864 9.97366 9.03505 10 8.96875 10ZM9.98425 10H9.75C9.6837 10 9.62011 9.97366 9.57322 9.92678C9.52634 9.87989 9.5 9.8163 9.5 9.75C9.5 9.6837 9.52634 9.62011 9.57322 9.57322C9.62011 9.52634 9.6837 9.5 9.75 9.5H9.98425C10.0506 9.5 10.1141 9.52634 10.161 9.57322C10.2079 9.62011 10.2343 9.6837 10.2343 9.75C10.2343 9.8163 10.2079 9.87989 10.161 9.92678C10.1141 9.97366 10.0506 10 9.98425 10Z" fill="#B4AAE7"/>
</g>
<defs>
<clipPath id="clip0">
<rect width="16" height="16" fill="white"/>
</clipPath>
</defs>
</svg>
